<svg id="text" xmlns="http://www.w3.org/2000/svg" viewBox="0 0 1080 460"><defs><style>.cls-1{fill:#001f3f;}.cls-2{fill:#fff;}.cls-3{fill:none;stroke:#ffdc00;stroke-miterlimit:10;}.cls-4{fill:#ffdc00;}</style></defs><title>Font units</title><rect class="cls-1" width="1080" height="460"/><path class="cls-2" d="M139.56,171.28a37,37,0,0,0,18.72,5.28c10.68,0,16.92-5.64,16.92-13.8,0-7.56-4.32-11.88-15.24-16.08-13.2-4.68-21.36-11.52-21.36-22.92,0-12.6,10.44-22,26.16-22,8.28,0,14.28,1.92,17.88,4l-2.88,8.52a32.21,32.21,0,0,0-15.36-3.84c-11,0-15.24,6.6-15.24,12.12,0,7.56,4.92,11.28,16.08,15.6,13.68,5.28,20.64,11.88,20.64,23.76,0,12.48-9.24,23.28-28.32,23.28-7.8,0-16.32-2.28-20.64-5.16Z" transform="translate(0)"/><path class="cls-2" d="M200.16,104.08a121,121,0,0,1,20-1.56c10.32,0,17.88,2.4,22.68,6.72,4.44,3.84,7.08,9.72,7.08,16.92s-2.16,13.08-6.24,17.28c-5.52,5.88-14.52,8.88-24.72,8.88a36,36,0,0,1-8.4-.72V184H200.16V104.08Zm10.44,39a35,35,0,0,0,8.64.84c12.6,0,20.28-6.12,20.28-17.28,0-10.68-7.56-15.84-19.08-15.84a43.8,43.8,0,0,0-9.84.84v31.44Z" transform="translate(0)"/><path class="cls-2" d="M264,104.2a101.16,101.16,0,0,1,19.08-1.68c10.44,0,17.16,1.8,22.2,5.88,4.2,3.12,6.72,7.92,6.72,14.28,0,7.8-5.16,14.64-13.68,17.76v0.24C306,142.6,315,149,315,161a21.8,21.8,0,0,1-6.84,16.2c-5.64,5.16-14.76,7.56-28,7.56a122,122,0,0,1-16.2-1V104.2Zm10.44,33.12h9.48c11,0,17.52-5.76,17.52-13.56,0-9.48-7.2-13.2-17.76-13.2a44.75,44.75,0,0,0-9.24.72v26Zm0,38.76a55.73,55.73,0,0,0,8.76.48c10.8,0,20.76-4,20.76-15.72,0-11-9.48-15.6-20.88-15.6h-8.64v30.84Z" transform="translate(0)"/><path class="cls-2" d="M354.48,103.12H398v8.76H364.92v26.88h30.6v8.64h-30.6V184H354.48V103.12Z" transform="translate(0)"/><path class="cls-2" d="M409.44,144c0-6.84-.12-12.72-0.48-18.12h9.24l0.36,11.4H419c2.64-7.8,9-12.72,16.08-12.72a11.43,11.43,0,0,1,3,.36v10a15.88,15.88,0,0,0-3.6-.36c-7.44,0-12.72,5.64-14.16,13.56a29.69,29.69,0,0,0-.48,4.92v31H409.44V144Z" transform="translate(0)"/><path class="cls-2" d="M500,154.48c0,21.48-14.88,30.84-28.92,30.84-15.72,0-27.84-11.52-27.84-29.88,0-19.44,12.72-30.84,28.8-30.84C488.76,124.6,500,136.72,500,154.48Zm-46.08.6c0,12.72,7.32,22.32,17.64,22.32,10.08,0,17.64-9.48,17.64-22.56,0-9.84-4.92-22.32-17.4-22.32S454,144,454,155.08Z" transform="translate(0)"/><path class="cls-2" d="M513.36,141.64c0-6-.12-10.92-0.48-15.72h9.36l0.6,9.6h0.24c2.88-5.52,9.6-10.92,19.2-10.92,8,0,20.52,4.8,20.52,24.72V184H552.24V150.52c0-9.36-3.48-17.16-13.44-17.16a15,15,0,0,0-14.16,10.8,15.2,15.2,0,0,0-.72,4.92V184H513.36V141.64Z" transform="translate(0)"/><path class="cls-2" d="M592.2,109.24v16.68h15.12v8H592.2v31.32c0,7.2,2,11.28,7.92,11.28a23.5,23.5,0,0,0,6.12-.72l0.48,7.92a25.83,25.83,0,0,1-9.36,1.44c-4.92,0-8.88-1.56-11.4-4.44-3-3.12-4.08-8.28-4.08-15.12V134h-9v-8h9V112Z" transform="translate(0)"/><path class="cls-2" d="M624.36,156.88c0.24,14.28,9.36,20.16,19.92,20.16,7.56,0,12.12-1.32,16.08-3l1.8,7.56c-3.72,1.68-10.08,3.6-19.32,3.6-17.88,0-28.56-11.76-28.56-29.28s10.32-31.32,27.24-31.32c19,0,24,16.68,24,27.36a39.78,39.78,0,0,1-.36,4.92h-40.8Zm31-7.56c0.12-6.72-2.76-17.16-14.64-17.16-10.68,0-15.36,9.84-16.2,17.16h30.84Z" transform="translate(0)"/><path class="cls-2" d="M678.6,141.64c0-6-.12-10.92-0.48-15.72h9.36l0.6,9.6h0.24c2.88-5.52,9.6-10.92,19.2-10.92,8,0,20.52,4.8,20.52,24.72V184H717.48V150.52c0-9.36-3.48-17.16-13.44-17.16a15,15,0,0,0-14.16,10.8,15.2,15.2,0,0,0-.72,4.92V184H678.6V141.64Z" transform="translate(0)"/><path class="cls-2" d="M795.36,98.8V169c0,5.16.12,11,.48,15h-9.48l-0.48-10.08h-0.24c-3.24,6.48-10.32,11.4-19.8,11.4-14,0-24.84-11.88-24.84-29.52-0.12-19.32,11.88-31.2,26-31.2,8.88,0,14.88,4.2,17.52,8.88h0.24V98.8h10.56ZM784.8,149.56a18.62,18.62,0,0,0-.48-4.44,15.53,15.53,0,0,0-15.24-12.24c-10.92,0-17.4,9.6-17.4,22.44,0,11.76,5.76,21.48,17.16,21.48,7.08,0,13.56-4.68,15.48-12.6a18.32,18.32,0,0,0,.48-4.56V149.56Z" transform="translate(0)"/><path class="cls-2" d="M144,247.12l16.08,34.44c2,4.8,4,9.48,5.88,14.28h0.24c1.44-4.2,3-8.88,5-14.64l12.6-34.08h11L178,288.64c-4.44,10.8-9.48,23.16-15.12,30.72-5.28,6.6-11.16,10-18.36,10a18,18,0,0,1-5.88-.72l1.08-8.52a14.65,14.65,0,0,0,3.84.36c8.4-.12,13.32-8.16,15.84-13.92,0.84-1.8.6-3-.36-4.92l-26.88-54.48H144Z" transform="translate(0)"/><path class="cls-2" d="M243.84,269.92v8.4H225.72V328H215.28V278.32H197.16v-8.4h46.68Z" transform="translate(0)"/><path class="cls-2" d="M262.8,269.92V294.4c0,9.24-.12,15-0.6,23.28l0.36,0.12c3.48-7.08,5.52-11.16,9.36-17.88l18.12-30H302.4V328H292.32V303.4c0-9.48.24-14.4,0.72-23.76h-0.36c-3.72,7.44-6.24,12.12-9.6,18-5.52,9-11.88,20.16-18.12,30.36H252.84V269.92h10Z" transform="translate(0)"/><path class="cls-2" d="M329.76,269.92v23.4h27.6v-23.4H367.8V328H357.36V301.72h-27.6V328H319.32V269.92h10.44Z" transform="translate(0)"/><path class="cls-2" d="M395.28,269.92v19.8a49.92,49.92,0,0,1,9.48-.72c12.48,0,25.08,5.16,25.08,19.44,0,6.12-2.28,10.32-6,13.44-6.36,5.4-15.72,6.72-23.4,6.72a143.66,143.66,0,0,1-15.6-.84V269.92h10.44Zm0,50.76a59,59,0,0,0,7.32.48c8,0,16.8-3.36,16.8-12.36,0-9.36-8.4-12.24-16.32-12.24a47.94,47.94,0,0,0-7.8.6v23.52Zm52.32-50.76V328H437.16V269.92H447.6Z" transform="translate(0)"/><path class="cls-2" d="M470.76,300.88C471,315.16,480.12,321,490.68,321c7.56,0,12.12-1.32,16.08-3l1.8,7.56c-3.72,1.68-10.08,3.6-19.32,3.6-17.88,0-28.56-11.76-28.56-29.28S471,268.6,487.92,268.6c19,0,24,16.68,24,27.36a39.79,39.79,0,0,1-.36,4.92h-40.8Zm31-7.56c0.12-6.72-2.76-17.16-14.64-17.16-10.68,0-15.36,9.84-16.2,17.16h30.84Z" transform="translate(0)"/><path class="cls-2" d="M560.16,269.92V294.4c0,9.24-.12,15-0.6,23.28l0.36,0.12c3.48-7.08,5.52-11.16,9.36-17.88l18.12-30h12.36V328H589.68V303.4c0-9.48.24-14.4,0.72-23.76H590c-3.72,7.44-6.24,12.12-9.6,18-5.52,9-11.88,20.16-18.12,30.36H550.2V269.92h10Z" transform="translate(0)"/><path class="cls-2" d="M658.31,325.84c-2.76,1.44-8.88,3.36-16.68,3.36-17.52,0-28.92-11.88-28.92-29.64s12.24-30.84,31.2-30.84a35.3,35.3,0,0,1,14.64,3l-2.4,8.16c-2.52-1.44-6.48-2.76-12.24-2.76-13.32,0-20.52,9.84-20.52,22,0,13.44,8.64,21.72,20.16,21.72a30,30,0,0,0,13-2.88Z" transform="translate(0)"/><path class="cls-2" d="M711.83,269.92v8.4H693.71V328H683.28V278.32H665.16v-8.4h46.68Z" transform="translate(0)"/><path class="cls-2" d="M772.07,298.48c0,21.48-14.88,30.84-28.92,30.84-15.72,0-27.84-11.52-27.84-29.88,0-19.44,12.72-30.84,28.8-30.84C760.79,268.6,772.07,280.72,772.07,298.48Zm-46.08.6c0,12.72,7.32,22.32,17.64,22.32,10.08,0,17.64-9.48,17.64-22.56,0-9.84-4.92-22.32-17.4-22.32S726,288,726,299.08Z" transform="translate(0)"/><path class="cls-2" d="M785.4,288.88c0-7.44-.24-13.44-0.48-19h9.48l0.48,10h0.24c4.32-7.08,11.16-11.28,20.64-11.28,14,0,24.6,11.88,24.6,29.52,0,20.88-12.72,31.2-26.4,31.2-7.68,0-14.4-3.36-17.88-9.12h-0.24v31.56H785.4V288.88Zm10.44,15.48a23.84,23.84,0,0,0,.48,4.32A16.29,16.29,0,0,0,812.15,321c11.16,0,17.64-9.12,17.64-22.44,0-11.64-6.12-21.6-17.28-21.6-7.2,0-13.92,5.16-16,13.08a17.14,17.14,0,0,0-.72,4.32v10Z" transform="translate(0)"/><path class="cls-2" d="M863.39,269.92V294.4c0,9.24-.12,15-0.6,23.28l0.36,0.12c3.48-7.08,5.52-11.16,9.36-17.88l18.12-30H903V328H892.91V303.4c0-9.48.24-14.4,0.72-23.76h-0.36c-3.72,7.44-6.24,12.12-9.6,18-5.52,9-11.88,20.16-18.12,30.36H853.43V269.92h10Z" transform="translate(0)"/><path class="cls-2" d="M929.87,269.92V294.4c0,9.24-.12,15-0.6,23.28l0.36,0.12c3.48-7.08,5.52-11.16,9.36-17.88l18.12-30h12.36V328H959.39V303.4c0-9.48.24-14.4,0.72-23.76h-0.36c-3.72,7.44-6.24,12.12-9.6,18-5.52,9-11.88,20.16-18.12,30.36H919.91V269.92h10Z" transform="translate(0)"/><line class="cls-3" y1="184" x2="1080" y2="184"/><line class="cls-3" y1="214" x2="1080" y2="214"/><line class="cls-3" y1="84" x2="1080" y2="84"/><line class="cls-3" x1="121.55" y1="89.97" x2="121.55" y2="208.03"/><polygon class="cls-4" points="117.85 92.78 121.55 91.2 125.25 92.78 121.55 84 117.85 92.78"/><polygon class="cls-4" points="117.85 205.22 121.55 206.79 125.25 205.22 121.55 214 117.85 205.22"/><line class="cls-3" x1="200" x2="200" y2="460"/><line class="cls-3" x1="186" x2="186" y2="460"/><line class="cls-3" x1="156" y1="195.75" x2="180.03" y2="195.75"/><polygon class="cls-4" points="177.22 199.45 178.8 195.75 177.22 192.05 186 195.75 177.22 199.45"/><line class="cls-3" x1="205.85" y1="195.75" x2="229.88" y2="195.75"/><polygon class="cls-4" points="208.65 199.45 207.08 195.75 208.65 192.05 199.88 195.75 208.65 199.45"/><line class="cls-3" x1="199.88" y1="195.75" x2="186" y2="195.75"/><line class="cls-3" x1="100.39" y1="189.97" x2="100.39" y2="322.03"/><polygon class="cls-4" points="96.68 192.78 100.39 191.21 104.09 192.78 100.39 184 96.68 192.78"/><polygon class="cls-4" points="96.68 319.22 100.39 320.8 104.09 319.22 100.39 328 96.68 319.22"/><line class="cls-3" y1="184" x2="1080" y2="184"/><line class="cls-3" y1="328" x2="1080" y2="328"/></svg>