<?xml version="1.0" encoding="UTF-8" standalone="no"?>
<!-- Created with Inkscape (http://www.inkscape.org/) -->
<svg
   xmlns:dc="http://purl.org/dc/elements/1.1/"
   xmlns:cc="http://web.resource.org/cc/"
   xmlns:rdf="http://www.w3.org/1999/02/22-rdf-syntax-ns#"
   xmlns:svg="http://www.w3.org/2000/svg"
   xmlns="http://www.w3.org/2000/svg"
   xmlns:sodipodi="http://sodipodi.sourceforge.net/DTD/sodipodi-0.dtd"
   xmlns:inkscape="http://www.inkscape.org/namespaces/inkscape"
   id="svg2242"
   sodipodi:version="0.32"
   inkscape:version="0.46dev+devel"
   width="234"
   height="68"
   version="1.0"
   sodipodi:docname="Zapfino_glyphe.svg"
   inkscape:output_extension="org.inkscape.output.svg.inkscape">
  <metadata
     id="metadata2247">
    <rdf:RDF>
      <cc:Work
         rdf:about="">
        <dc:format>image/svg+xml</dc:format>
        <dc:type
           rdf:resource="http://purl.org/dc/dcmitype/StillImage" />
      </cc:Work>
    </rdf:RDF>
  </metadata>
  <defs
     id="defs2245" />
  <sodipodi:namedview
     inkscape:window-height="994"
     inkscape:window-width="1400"
     inkscape:pageshadow="2"
     inkscape:pageopacity="0.0"
     guidetolerance="10.0"
     gridtolerance="10.0"
     objecttolerance="10.0"
     borderopacity="1.0"
     bordercolor="#666666"
     pagecolor="#ffffff"
     id="base"
     showguides="true"
     inkscape:guide-bbox="true"
     inkscape:zoom="2.3717949"
     inkscape:cx="232.94423"
     inkscape:cy="34"
     inkscape:window-x="-4"
     inkscape:window-y="-4"
     inkscape:current-layer="svg2242" />
  <path
     style="fill:#000000"
     d="M 36.284845,58.499531 C 34.206885,57.611719 32.831059,56.175068 32.395016,54.437733 C 31.753934,51.883461 32.773724,45.793182 34.55483,41.539127 C 35.006373,40.460647 33.738959,41.39006 31.738355,43.604489 C 27.463873,48.33583 21.932805,51.571929 19.630564,50.688476 C 15.438772,49.079934 20.286193,37.071194 28.881092,27.771713 C 36.812468,19.190149 39.241687,17.734938 45.922947,17.562875 L 51.629661,17.415909 L 46.804526,26.581354 C 36.719654,45.737781 35.171632,57 42.623404,57 C 45.407925,57 53.039936,51.294941 59.204607,44.605267 C 61.792141,41.79737 63.929641,40.078017 63.954607,40.784483 C 63.979573,41.490948 60.906066,45.162899 57.124592,48.944374 C 47.521239,58.547726 42.155696,61.007862 36.284845,58.499531 z M 29.972636,42.75 C 34.921475,37.840712 44.222098,24.175162 43.699734,22.58056 C 43.50505,21.986252 42.183905,21.36156 40.763858,21.192357 C 37.347734,20.785313 31.955104,26.164984 28.075717,33.850006 C 24.924692,40.09215 23.168675,47 24.732908,47 C 25.258427,47 27.616305,45.0875 29.972636,42.75 z M 112.68873,53.84568 C 110.36427,52.544849 110.4728,45.408939 112.91477,38.982175 L 114.82955,33.942897 L 107.16477,41.890061 C 99.79613,49.530185 95.810182,51.90861 92.502236,50.639232 C 88.097683,48.949046 94.448643,36.19133 103.81305,27.918236 C 109.20887,23.151237 117.70357,18.023096 120.22695,18.009384 C 121.17677,18.004223 122.72807,16.7625 123.67429,15.25 C 124.6205,13.7375 125.53553,12.30785 125.70767,12.073001 C 125.87982,11.838151 126.64684,12.502343 127.41216,13.548983 C 128.64954,15.2412 128.37956,16.229906 124.97453,22.475982 C 117.20087,36.735721 114.85031,49.124136 119.78552,49.824206 C 123.34884,50.32967 130.1408,45.725752 137.40222,37.882741 C 141.05476,33.937662 144.29079,30.957461 144.59341,31.260073 C 145.43544,32.102109 132.14258,45.805824 127.15526,49.237185 C 121.64042,53.031496 115.00883,55.144073 112.68873,53.84568 z M 106.14509,41.011592 C 112.0063,34.852067 121.70994,20.376602 120.67293,19.339595 C 119.37996,18.04663 110.69234,24.457301 105.84655,30.280108 C 94.074162,44.426072 94.324743,53.433568 106.14509,41.011592 z M 190.99571,53.494833 C 189.13127,51.248323 190.24279,43.334888 193.38938,36.453152 C 194.88648,33.178918 195.7202,30.95 195.2421,31.5 C 194.764,32.05 192.47457,34.829609 190.15449,37.676908 C 185.65561,43.198107 177.82071,49 174.86374,49 C 173.87738,49 172.57594,48.07615 171.97163,46.946999 C 168.64506,40.731235 188.97417,18.555165 200.0249,16.345021 C 201.96925,15.956151 203.57982,14.821533 204.23801,13.376971 C 205.24724,11.161951 208.58998,9.2566467 209.63444,10.301102 C 209.90048,10.567145 206.41724,18.267185 201.89391,27.412306 C 199.06407,33.133587 197.09622,37.324563 195.7885,40.491936 C 194.24279,44.235752 193.61935,46.549485 193.58484,48.269898 C 193.5132,51.8418 193.82767,52.546782 195.60584,52.80066 C 198.57233,53.224198 205.51247,47.633344 211.89435,39.678923 C 218.01318,32.052381 220.10215,31.368341 214.66844,38.770542 C 205.4784,51.289874 194.71957,57.981804 190.99571,53.494833 z M 183.04547,42.967623 C 187.86583,39.535221 203.86411,17 201.48049,17 C 201.1724,17 199.20719,17.873976 197.11336,18.942168 C 192.27321,21.411428 183.62135,30.840316 180.44615,37.10626 C 176.51521,44.863595 177.44341,46.956641 183.04547,42.967623 z"
     id="path2253"
     sodipodi:nodetypes="cssssscccssssccsssscccccsssssssssssccssccssssssssssssssccsssc" />
</svg>
